<?xml version="1.0" encoding="utf-8"?>
<!-- Generator: Adobe Illustrator 20.0.0, SVG Export Plug-In . SVG Version: 6.00 Build 0)  -->
<svg version="1.1" id="Слой_1" xmlns="http://www.w3.org/2000/svg" xmlns:xlink="http://www.w3.org/1999/xlink" x="0px" y="0px"
	 viewBox="0 0 841.9 595.3" style="enable-background:new 0 0 841.9 595.3;" xml:space="preserve">
<style type="text/css">
	.st0{fill:#FFFFFF;}
	.st1{fill:#3B4167;}
	.st2{fill:#5B7BBB;}
	.st3{fill:none;stroke:#FFFFFF;stroke-width:4;stroke-miterlimit:10;}
</style>
<g>
	<g>
		<g id="XMLID_2_">
			<g>
				<path class="st0" d="M256.9,107.7c0,0,29.4,160.2-110.6,287.6c41.7-64.6,87.5-168.4,61-288.8L256.9,107.7z M252.1,203.4
					c8.8-48.8,4.3-85.7,3.1-93.7l-45.4-1.1c23.7,111.6-13.9,208.8-53.5,274.6C219.6,320.4,243.4,251.4,252.1,203.4z"/>
				<path class="st0" d="M146.3,395.3c140-127.4,110.6-287.6,110.6-287.6l-49.6-1.2l-2.1-0.1l-0.4-2l53.8,1.3l0.3,1.6
					c0.1,0.4,7.3,41-2.8,96.7c-5.9,32.7-16.6,64.1-31.6,93.5c-18.8,36.6-44.7,70-76.8,99.3l-11.4,10.3l4.4-6.8
					C142.6,398.7,144.5,397,146.3,395.3z"/>
				<path class="st1" d="M255.2,109.7c1.2,8,5.8,44.9-3.1,93.7c-8.7,48-32.5,117-95.8,179.7c39.6-65.7,77.2-162.9,53.5-274.6
					L255.2,109.7z"/>
				<path class="st0" d="M207.3,106.5c26.5,120.4-19.3,224.3-61,288.8c-1.9,1.7-3.7,3.4-5.6,5l4-6.1
					c42.2-65.3,86.9-168.2,60.7-287.3l-0.1-0.5L207.3,106.5z"/>
				<path class="st2" d="M205.3,106.9c26.2,119.1-18.5,222-60.7,287.3l-4,6.1c-29.2,25.6-65.4,49.7-110.3,70.8
					c0,0,164.8-159.6,114.5-366.2l60.3,1.5L205.3,106.9z"/>
			</g>
			<g>
			</g>
		</g>
	</g>
</g>
<g>
	<g id="XMLID_1_">
		<path class="st0" d="M269.5,108c0,0-29.4,160.2,110.6,287.6c-41.7-64.6-87.5-168.4-61-288.8L269.5,108z M274.3,203.6
			c-8.8-48.8-4.3-85.7-3.1-93.7l45.4-1.1c-23.7,111.6,13.9,208.8,53.5,274.5C306.8,320.7,283,251.6,274.3,203.6z"/>
		<path class="st0" d="M380.1,395.6C240.1,268.2,269.5,108,269.5,108l49.6-1.2l2.1-0.1l0.4-2l-53.8,1.3l-0.3,1.6
			c-0.1,0.4-7.3,41.1,2.8,96.7c5.9,32.7,16.6,64.1,31.6,93.4c18.8,36.6,44.7,70,76.8,99.3l11.4,10.3l-4.4-6.8
			C383.8,399,381.9,397.3,380.1,395.6L380.1,395.6z"/>
		<path class="st1" d="M271.2,109.9c-1.2,8-5.8,44.9,3.1,93.7c8.7,48,32.5,117,95.8,179.7c-39.6-65.7-77.2-162.9-53.5-274.5
			L271.2,109.9z"/>
		<path class="st0" d="M319.1,106.8c-26.5,120.4,19.3,224.3,61,288.8l0,0c1.9,1.7,3.7,3.4,5.6,5l-4-6.1
			c-42.2-65.3-86.9-168.2-60.7-287.3l0.1-0.5L319.1,106.8z"/>
		<path class="st2" d="M321.1,107.2c-26.2,119.1,18.5,222,60.7,287.3l4,6.1c29.2,25.6,65.4,49.7,110.3,70.8
			c0,0-164.8-159.6-114.5-366.2l-60.3,1.5L321.1,107.2z"/>
	</g>
</g>
<g id="XMLID_3_">
	<g>
		<path class="st1" d="M120.8,114.1c15.1,11.6,25.5,35.9,25.5,64c0,27-9.6,50.5-23.8,62.6c-9.9-15.6-16.2-38.8-16.2-64.7
			C106.3,151.6,111.9,129.6,120.8,114.1z"/>
		<path class="st2" d="M106.3,176c0,25.9,6.3,49.1,16.2,64.7c-6.5,5.5-13.9,8.7-21.9,8.7c-25.2,0-45.7-31.9-45.7-71.3
			s20.4-71.3,45.7-71.3c7.2,0,14.1,2.6,20.2,7.3C111.9,129.6,106.3,151.6,106.3,176z"/>
	</g>
	<g>
		<path class="st3" d="M122.5,240.7c-6.5,5.5-13.9,8.7-21.9,8.7c-25.2,0-45.7-31.9-45.7-71.3s20.4-71.3,45.7-71.3
			c7.2,0,14.1,2.6,20.2,7.3"/>
		<path class="st3" d="M120.8,114.1c15.1,11.6,25.5,35.9,25.5,64c0,27-9.6,50.5-23.8,62.6c-9.9-15.6-16.2-38.8-16.2-64.7
			C106.3,151.6,111.9,129.6,120.8,114.1z"/>
	</g>
</g>
<g>
	<path d="M209.7,447.7c-6.1,5.6-13.1,8.4-20.8,8.4c-6.2,0-11.9-1.8-17-5.4c-5.1-3.6-9-8.4-11.5-14.6c-1.6-4-2.5-8.1-2.5-12.3
		c0-9,3.1-16.6,9.3-22.9c6.1-6.2,13.3-9.3,21.7-9.3c7.9,0,14.9,2.8,20.8,8.5v17.1c-2.8-5.3-5.6-9.2-8.3-11.8
		c-3.7-3.6-7.9-5.4-12.5-5.4c-6,0-10.9,2.3-14.8,7c-3.9,4.7-5.9,10.3-5.9,16.8c0,6.5,1.9,12,5.8,16.7c4,4.8,9,7.2,15,7.2
		c7.7,0,14.6-5.8,20.8-17.3V447.7z"/>
	<path d="M244.7,391.7c8.4,0,15.6,3.1,21.7,9.4c6.1,6.3,9.2,13.9,9.2,22.8c0,8.9-3.1,16.5-9.2,22.8c-6.1,6.3-13.4,9.4-21.7,9.4
		s-15.6-3.1-21.7-9.4c-6.1-6.3-9.2-13.9-9.2-22.8c0-9,3.1-16.6,9.2-22.8C229,394.8,236.3,391.7,244.7,391.7z M244.7,400
		c-5.9,0-10.8,2.4-14.8,7.1s-6,10.3-6,16.7c0,6.4,2,11.9,6,16.7c4,4.8,8.9,7.1,14.8,7.1c5.9,0,10.9-2.4,14.9-7.2
		c3.9-4.6,5.9-10.2,5.9-16.6c0-6.4-2-12-6-16.7S250.6,400,244.7,400z"/>
	<path d="M289.5,394c7.9,0,14.8,2.8,20.7,8.5c6.1,5.9,9.2,13,9.2,21.3c0,8.3-3.1,15.4-9.2,21.3c-6,5.7-12.9,8.5-20.7,8.5h-8.7V394
		H289.5z M309,423.9c0-5.8-1.7-10.6-5.1-14.7c-3.4-4-7.7-6.2-13-6.6v42.6c5.2-0.3,9.6-2.6,13-6.7C307.3,434.4,309,429.5,309,423.9z"
		/>
	<path d="M354.7,428h-22.1c0.9,5.8,3.5,10.5,7.6,14.1s9,5.4,14.5,5.4v8.5c-6.6,0-12.5-1.7-17.8-5.1c-5.4-3.5-9.5-8.5-12.1-14.8
		c-1.6-4-2.5-8.1-2.5-12.3c0-4.3,0.8-8.4,2.5-12.4c2.6-6.3,6.7-11.2,12.2-14.8c5.2-3.4,11.2-5.1,17.7-5.1v8.5
		c-5.6,0-10.4,1.8-14.5,5.4c-4.1,3.6-6.7,8.3-7.6,14.1h22.1V428z"/>
</g>
<g>
	<path class="st2" d="M209.7,444.3c-6.1,5.6-13.1,8.4-20.8,8.4c-6.2,0-11.9-1.8-17-5.4c-5.1-3.6-9-8.4-11.5-14.6
		c-1.6-4-2.5-8.1-2.5-12.3c0-9,3.1-16.6,9.3-22.9c6.1-6.2,13.3-9.3,21.7-9.3c7.9,0,14.9,2.8,20.8,8.5V414c-2.8-5.3-5.6-9.2-8.3-11.8
		c-3.7-3.6-7.9-5.4-12.5-5.4c-6,0-10.9,2.3-14.8,7c-3.9,4.7-5.9,10.3-5.9,16.8c0,6.5,1.9,12,5.8,16.7c4,4.8,9,7.2,15,7.2
		c7.7,0,14.6-5.8,20.8-17.3V444.3z"/>
	<path class="st2" d="M244.7,388.3c8.4,0,15.6,3.1,21.7,9.4c6.1,6.3,9.2,13.9,9.2,22.8c0,8.9-3.1,16.5-9.2,22.8
		c-6.1,6.3-13.4,9.4-21.7,9.4s-15.6-3.1-21.7-9.4c-6.1-6.3-9.2-13.9-9.2-22.8c0-9,3.1-16.6,9.2-22.8
		C229,391.5,236.3,388.3,244.7,388.3z M244.7,396.7c-5.9,0-10.8,2.4-14.8,7.1s-6,10.3-6,16.7c0,6.4,2,11.9,6,16.7
		c4,4.8,8.9,7.1,14.8,7.1c5.9,0,10.9-2.4,14.9-7.2c3.9-4.6,5.9-10.2,5.9-16.6c0-6.4-2-12-6-16.7S250.6,396.7,244.7,396.7z"/>
	<path class="st2" d="M289.5,390.7c7.9,0,14.8,2.8,20.7,8.5c6.1,5.9,9.2,13,9.2,21.3c0,8.3-3.1,15.4-9.2,21.3
		c-6,5.7-12.9,8.5-20.7,8.5h-8.7v-59.7H289.5z M309,420.5c0-5.8-1.7-10.6-5.1-14.7c-3.4-4-7.7-6.2-13-6.6v42.6
		c5.2-0.3,9.6-2.6,13-6.7C307.3,431.1,309,426.2,309,420.5z"/>
	<path class="st2" d="M354.7,424.7h-22.1c0.9,5.8,3.5,10.5,7.6,14.1s9,5.4,14.5,5.4v8.5c-6.6,0-12.5-1.7-17.8-5.1
		c-5.4-3.5-9.5-8.5-12.1-14.8c-1.6-4-2.5-8.1-2.5-12.3c0-4.3,0.8-8.4,2.5-12.4c2.6-6.3,6.7-11.2,12.2-14.8
		c5.2-3.4,11.2-5.1,17.7-5.1v8.5c-5.6,0-10.4,1.8-14.5,5.4c-4.1,3.6-6.7,8.3-7.6,14.1h22.1V424.7z"/>
</g>
</svg>
